<?xml version="1.0" encoding="UTF-8"?>
<svg xmlns="http://www.w3.org/2000/svg" xmlns:xlink="http://www.w3.org/1999/xlink" width="375.6pt" height="374.4pt" viewBox="0 0 375.6 374.4" version="1.1">
<defs>
<clipPath id="clip1">
  <path d="M 0 0 L 375 0 L 375 374.398438 L 0 374.398438 Z M 0 0 "/>
</clipPath>
</defs>
<g id="surface1">
<path style=" stroke:none;fill-rule:evenodd;fill:rgb(100%,100%,100%);fill-opacity:1;" d="M 4.648438 81.0625 C 29.675781 55.789063 54.703125 30.515625 79.734375 5.246094 C 114.898438 30.632813 150.027344 35.035156 187.039063 3.835938 C 224.445313 32.644531 260.90625 32.289063 295.238281 4.515625 C 320.347656 30.03125 346.957031 55.921875 372.066406 81.4375 C 360.441406 101.613281 346.570313 121.171875 347.164063 145.421875 C 348.789063 164.492188 356.328125 186.949219 364.960938 210.023438 C 375.6875 238.414063 373.433594 269.496094 355.210938 303.882813 C 336.847656 337.121094 304.546875 355.957031 256.234375 358.246094 C 222.300781 357.214844 199.804688 361.367188 188.835938 370.320313 C 173.070313 359.039063 158.199219 360.171875 119.46875 357.996094 C 74.121094 356.136719 44.03125 339.015625 24.636719 311.195313 C 7.152344 283.691406 1.363281 254.664063 6.839844 224.164063 C 17.210938 191.722656 37.382813 157.753906 24.636719 124.453125 C 20.21875 106.246094 12.179688 94.078125 4.648438 81.0625 Z M 4.648438 81.0625 "/>
<path style=" stroke:none;fill-rule:evenodd;fill:rgb(3.137207%,40.795898%,0.784302%);fill-opacity:1;" d="M 187.957031 284.066406 L 191.269531 284.066406 C 191.742188 284.066406 192.125 284.449219 192.125 284.917969 L 192.125 300.695313 C 192.125 301.164063 191.742188 301.542969 191.269531 301.542969 L 187.957031 301.542969 C 187.488281 301.542969 187.105469 301.164063 187.105469 300.695313 L 187.105469 284.917969 C 187.105469 284.449219 187.488281 284.066406 187.957031 284.066406 Z M 274.953125 284.066406 L 278.265625 284.066406 C 278.734375 284.066406 279.117188 284.449219 279.117188 284.917969 L 279.117188 300.695313 C 279.117188 301.164063 278.734375 301.542969 278.265625 301.542969 L 274.953125 301.542969 C 274.480469 301.542969 274.097656 301.164063 274.097656 300.695313 L 274.097656 284.917969 C 274.097656 284.449219 274.480469 284.066406 274.953125 284.066406 Z M 217.8125 288.335938 L 211.734375 288.335938 C 209.734375 288.335938 207.992188 290.167969 207.992188 292.214844 C 207.992188 294.765625 207.640625 295.539063 210.378906 297.144531 C 213.148438 298.421875 216.484375 299.199219 216.535156 300.269531 C 216.582031 301.324219 216.160156 301.496094 215.167969 301.542969 C 213.144531 301.542969 211.117188 301.542969 209.09375 301.542969 C 206.910156 301.542969 205.703125 300.570313 205.703125 298.023438 L 205.703125 295.558594 C 205.703125 295.167969 205.386719 294.855469 205 294.855469 L 201.167969 294.855469 C 200.78125 294.855469 200.464844 295.167969 200.464844 295.558594 L 200.464844 298.378906 C 200.464844 298.441406 200.472656 298.503906 200.488281 298.5625 C 200.695313 302.324219 202.195313 304.496094 205.308594 304.496094 C 209.429688 304.496094 213.554688 304.496094 217.679688 304.496094 C 220.578125 304.496094 221.554688 302.371094 221.554688 300.046875 C 221.554688 298.011719 221.390625 297.035156 218.824219 295.59375 C 216.945313 294.816406 215.050781 294.285156 213.171875 293.507813 C 212.191406 293.15625 212.957031 291.507813 214.71875 291.507813 L 220.011719 291.507813 C 220.425781 291.507813 220.761719 291.167969 220.761719 290.757813 L 220.761719 289.085938 C 220.761719 288.671875 220.425781 288.335938 220.011719 288.335938 Z M 224.097656 298.417969 L 229.777344 298.417969 C 231.789063 298.417969 232.285156 296.480469 232.285156 294.855469 C 232.285156 292.894531 231.1875 291.507813 228.984375 291.507813 L 224.050781 291.507813 C 223.664063 291.507813 223.347656 291.191406 223.347656 290.804688 L 223.347656 289.039063 C 223.347656 288.65625 223.664063 288.335938 224.050781 288.335938 L 231.835938 288.335938 C 235.378906 288.335938 237.4375 290.433594 237.4375 293.246094 C 237.4375 294.4375 237.4375 295.628906 237.4375 296.816406 C 237.4375 299.605469 235.429688 301.542969 232.285156 301.542969 L 224.097656 301.542969 C 223.683594 301.542969 223.347656 301.210938 223.347656 300.796875 L 223.347656 299.164063 C 223.347656 298.757813 223.683594 298.417969 224.097656 298.417969 Z M 266.566406 284.066406 L 270.214844 284.066406 C 270.664063 284.066406 271.03125 284.433594 271.03125 284.882813 L 271.03125 296.664063 C 271.03125 299.71875 268.804688 301.542969 265.351563 301.542969 C 262.945313 301.542969 260.539063 301.542969 258.132813 301.542969 C 257.15625 301.433594 256.253906 301.242188 255.445313 300.957031 C 254.625 301.289063 253.800781 301.417969 252.980469 301.542969 C 250.660156 301.542969 248.34375 301.542969 246.023438 301.542969 C 242.417969 301.542969 239.769531 299.488281 239.769531 296.859375 L 239.769531 284.882813 C 239.769531 284.433594 240.140625 284.066406 240.589844 284.066406 L 244.238281 284.066406 C 244.6875 284.066406 245.054688 284.433594 245.054688 284.882813 L 245.054688 295.277344 C 245.054688 296.554688 245.777344 298.417969 247.960938 298.417969 C 248.664063 298.417969 249.371094 298.417969 250.074219 298.417969 C 252.40625 298.417969 252.980469 296.515625 252.980469 295.363281 L 252.980469 289.113281 C 252.980469 288.6875 253.328125 288.335938 253.753906 288.335938 L 257.359375 288.335938 C 257.785156 288.335938 258.132813 288.6875 258.132813 289.113281 L 258.132813 295.628906 C 258.132813 296.960938 259.386719 298.417969 261.085938 298.417969 C 261.792969 298.417969 262.351563 298.417969 263.058594 298.417969 C 264.226563 298.417969 265.75 297.390625 265.75 296.039063 L 265.75 284.882813 C 265.75 284.433594 266.117188 284.066406 266.566406 284.066406 Z M 253.859375 284.066406 L 257.117188 284.066406 C 257.601563 284.066406 258 284.464844 258 284.949219 L 258 285.898438 C 258 286.382813 257.601563 286.777344 257.117188 286.777344 L 253.859375 286.777344 C 253.375 286.777344 252.980469 286.382813 252.980469 285.898438 L 252.980469 284.949219 C 252.980469 284.464844 253.375 284.066406 253.859375 284.066406 Z M 106.664063 288.335938 L 100.589844 288.335938 C 98.585938 288.335938 96.84375 290.167969 96.84375 292.214844 C 96.84375 294.765625 96.496094 295.539063 99.230469 297.144531 C 102 298.421875 105.339844 299.199219 105.386719 300.269531 C 105.433594 301.324219 105.011719 301.496094 104.023438 301.542969 C 101.996094 301.542969 99.972656 301.542969 97.945313 301.542969 C 95.761719 301.542969 94.554688 300.570313 94.554688 298.023438 L 94.554688 295.558594 C 94.554688 295.167969 94.238281 294.855469 93.851563 294.855469 L 90.019531 294.855469 C 89.632813 294.855469 89.316406 295.167969 89.316406 295.558594 L 89.316406 298.378906 C 89.316406 298.441406 89.324219 298.503906 89.339844 298.5625 C 89.546875 302.324219 91.046875 304.496094 94.160156 304.496094 C 98.285156 304.496094 102.40625 304.496094 106.53125 304.496094 C 109.433594 304.496094 110.40625 302.371094 110.40625 300.046875 C 110.40625 298.011719 110.242188 297.035156 107.675781 295.59375 C 105.796875 294.816406 103.902344 294.285156 102.023438 293.507813 C 101.042969 293.15625 101.8125 291.507813 103.570313 291.507813 L 108.867188 291.507813 C 109.277344 291.507813 109.613281 291.167969 109.613281 290.757813 L 109.613281 289.085938 C 109.613281 288.671875 109.277344 288.335938 108.867188 288.335938 Z M 179.535156 284.066406 L 182.972656 284.066406 C 183.40625 284.066406 183.761719 284.417969 183.761719 284.859375 L 183.761719 296.351563 C 183.761719 299.539063 181.75 301.542969 178.347656 301.542969 L 171.742188 301.542969 L 171.742188 301.539063 L 164.0625 301.527344 C 162.394531 301.542969 160.746094 301.242188 159.261719 300.863281 C 158.3125 301.316406 157.179688 301.542969 155.847656 301.542969 L 121.414063 301.542969 C 121.269531 304.664063 119.035156 305.898438 114.148438 305.996094 C 112.824219 306.015625 112.449219 305.792969 112.34375 305.203125 C 112.089844 304.164063 112.132813 303.402344 113.839844 303.089844 C 115.164063 302.855469 116.394531 301.730469 116.394531 299.609375 L 116.394531 288.996094 C 116.394531 288.636719 116.691406 288.335938 117.054688 288.335938 L 120.753906 288.335938 C 121.117188 288.335938 121.414063 288.636719 121.414063 288.996094 L 121.414063 296.441406 C 121.414063 297.789063 121.765625 298.417969 123.089844 298.417969 L 124.824219 298.417969 C 125.96875 298.417969 126.476563 298.15625 126.449219 296.886719 C 126.4375 296.84375 126.433594 296.792969 126.433594 296.746094 L 126.433594 289.085938 C 126.433594 288.671875 126.769531 288.335938 127.183594 288.335938 L 130.792969 288.335938 C 131.460938 288.335938 131.425781 289.207031 131.757813 289.566406 C 132.574219 289.0625 134.507813 288.335938 136.007813 288.449219 L 145.632813 288.335938 C 148.148438 288.335938 150.429688 290.355469 150.429688 292.828125 L 150.429688 296.835938 C 150.429688 297.878906 150.785156 298.417969 152.015625 298.417969 L 153.734375 298.417969 C 154.960938 298.515625 156.464844 296.964844 156.464844 295.910156 L 156.464844 293.753906 C 156.464844 290.585938 158.894531 288.335938 162.277344 288.335938 L 167.03125 288.335938 C 170.804688 288.335938 173.238281 290.296875 173.238281 293.179688 L 173.238281 298.417969 L 175.835938 298.417969 C 177.761719 298.417969 178.742188 296.835938 178.699219 295.246094 L 178.742188 291.507813 L 178.742188 284.859375 C 178.742188 284.417969 179.101563 284.066406 179.535156 284.066406 Z M 164.503906 291.507813 L 165.238281 291.507813 C 166.832031 291.507813 168.132813 292.808594 168.132813 294.402344 L 168.132813 295.527344 C 168.132813 297.121094 166.832031 298.417969 165.238281 298.417969 L 164.503906 298.417969 C 162.914063 298.417969 161.613281 297.121094 161.613281 295.527344 L 161.613281 294.402344 C 161.613281 292.808594 162.914063 291.507813 164.503906 291.507813 Z M 131.542969 294.855469 C 131.542969 293.144531 133.246094 291.507813 135.769531 291.507813 C 137.617188 291.507813 139.695313 291.507813 141.542969 291.507813 C 143.886719 291.429688 145.410156 292.414063 145.410156 294.0625 C 145.410156 294.707031 145.410156 295.351563 145.410156 295.996094 C 145.410156 297.234375 144.347656 298.417969 142.636719 298.417969 C 139.480469 298.417969 136.328125 298.417969 133.171875 298.417969 C 131.773438 298.417969 131.542969 298.113281 131.542969 296.910156 C 131.542969 296.222656 131.542969 295.539063 131.542969 294.855469 Z M 131.542969 294.855469 "/>
<path style=" stroke:none;fill-rule:evenodd;fill:rgb(3.137207%,40.795898%,0.784302%);fill-opacity:1;" d="M 170.722656 156.269531 C 145.769531 151.078125 129.734375 134.867188 129.308594 115.136719 C 129.226563 111.277344 129.960938 107.179688 131.523438 103.664063 C 138.023438 119.996094 151.964844 132.449219 170.722656 137.242188 Z M 129.894531 98.976563 C 128.742188 95.117188 127.988281 91.074219 127.65625 86.894531 C 124.984375 89.011719 122.226563 92.023438 119.738281 95.496094 C 114.074219 103.414063 110.613281 112.09375 110.710938 121.886719 C 110.863281 137.179688 119.707031 150.820313 131.441406 159.921875 C 141.695313 167.878906 158.109375 174.816406 170.722656 176.03125 L 170.722656 159.734375 C 143.8125 154.246094 126.601563 136.21875 126.601563 114.324219 C 126.601563 108.933594 127.761719 103.773438 129.894531 98.976563 Z M 188.019531 217.269531 C 180.945313 217.222656 176.785156 211.863281 174.5625 204.59375 C 172.347656 197.347656 172.054688 187.503906 172.023438 179.640625 C 171.96875 165.617188 172.117188 151.683594 172.4375 137.652344 C 177.15625 138.679688 182.382813 139.261719 187.28125 139.261719 C 192.179688 139.261719 197.410156 138.679688 202.125 137.65625 C 202.445313 151.683594 202.59375 165.617188 202.539063 179.640625 C 202.511719 187.503906 202.21875 197.347656 200 204.59375 C 197.777344 211.863281 193.617188 217.222656 186.542969 217.269531 Z M 158.355469 211.289063 C 164.800781 215.640625 166.136719 220.027344 167.382813 230.894531 C 170.691406 224.304688 173.8125 218.289063 176.757813 212.800781 C 171.941406 205.339844 171.355469 198.730469 170.859375 188.746094 C 167.964844 199.78125 162.113281 206.191406 158.355469 211.289063 Z M 155.867188 254.925781 C 157.085938 253.488281 155.660156 252.871094 152.566406 253.085938 C 151.058594 255.585938 149.367188 257.5625 146.761719 259.039063 C 149.820313 259.386719 154.289063 256.78125 155.867188 254.925781 Z M 130.398438 249.394531 C 129.835938 247.59375 131.390625 247.585938 134.152344 248.988281 C 134.609375 252.171875 135.519531 254.578125 137.167969 256.742188 C 134.21875 255.863281 131.125 251.714844 130.398438 249.394531 Z M 161.03125 247.203125 C 161.160156 244.683594 159.910156 242.835938 158.6875 241.136719 C 157.710938 239.785156 156.980469 238.429688 157 236.925781 C 157.039063 233.902344 159.558594 231.195313 161.351563 228.433594 C 165.722656 221.445313 163.59375 217.566406 160.914063 217.316406 C 159.59375 217.191406 158.195313 217.777344 157.269531 219.109375 C 155.46875 221.703125 153.984375 226.78125 151.917969 228.949219 C 150.167969 230.785156 148.417969 231.253906 146.730469 231.675781 C 145.367188 232.019531 143.472656 231.769531 141.472656 231.746094 C 138.324219 231.71875 136.3125 232.230469 134.234375 234.6875 C 131.839844 237.515625 130.132813 242.023438 130.1875 244.988281 C 130.222656 246.722656 131.207031 247.261719 132.140625 247.308594 C 133.988281 247.40625 134.84375 246.574219 135.441406 245.050781 C 136.882813 241.402344 140.644531 238.828125 144.269531 238.828125 C 149.570313 238.828125 153.09375 243.484375 153.222656 247.566406 C 153.277344 249.257813 152.988281 251.414063 154.691406 252.453125 C 155.953125 253.230469 157.5625 252.683594 158.648438 251.847656 C 159.914063 250.867188 160.929688 249.21875 161.03125 247.203125 Z M 143.996094 240.628906 C 148.308594 240.628906 151.808594 244.308594 151.808594 248.851563 C 151.808594 253.1875 148.621094 256.738281 144.578125 257.054688 L 143.910156 259.949219 L 149.480469 261.339844 L 148.417969 265.597656 L 131.792969 261.449219 L 132.855469 257.195313 L 138.816406 258.679688 L 139.527344 255.601563 C 137.503906 254.113281 136.179688 251.644531 136.179688 248.851563 C 136.179688 244.308594 139.679688 240.628906 143.996094 240.628906 Z M 97.269531 139.378906 C 94.25 139.769531 90.96875 140.015625 88.898438 139.976563 C 86.742188 139.9375 84.53125 140.027344 84.355469 140.828125 C 84.054688 142.1875 87.261719 146.84375 94.527344 147.613281 C 100.527344 148.246094 103.878906 146.71875 112.351563 143.398438 C 115 142.363281 114.996094 140.789063 112.425781 137.859375 C 111.597656 136.914063 109.625 137.105469 106.210938 137.835938 C 103.046875 138.511719 98.945313 139.164063 97.269531 139.378906 Z M 111.699219 144.71875 C 108.066406 146.214844 103.902344 148.136719 100.941406 149.503906 C 99.191406 150.3125 97.445313 150.910156 95.871094 152.269531 C 94.011719 153.878906 92.789063 156.300781 93.796875 157.800781 C 95.253906 159.964844 98.761719 159.511719 102.382813 158.039063 C 107.941406 155.789063 113.800781 152.6875 116.277344 151.253906 C 117.585938 150.492188 118.378906 149.871094 118.113281 149.074219 C 117.21875 147.46875 116.21875 146.101563 115.183594 144.914063 C 113.855469 143.628906 113.273438 144.074219 111.699219 144.71875 Z M 117.804688 151.835938 C 114.3125 153.640625 110.050781 156.117188 107.21875 157.738281 C 105.546875 158.699219 103.859375 159.445313 102.410156 160.9375 C 100.699219 162.699219 99.6875 165.21875 100.824219 166.621094 C 102.464844 168.65625 105.921875 167.898438 109.398438 166.121094 C 114.738281 163.390625 120.636719 159.578125 122.980469 157.929688 C 124.21875 157.058594 124.433594 156.785156 124.011719 156.058594 C 123.113281 154.507813 121.628906 152.859375 120.667969 151.890625 C 119.59375 150.804688 119.316406 151.054688 117.804688 151.835938 Z M 123.695313 158.871094 C 120.5625 161.183594 116.582031 164.273438 114.097656 166.269531 C 112.59375 167.476563 111.042969 168.480469 109.847656 170.179688 C 108.433594 172.191406 107.828125 174.835938 109.171875 176.046875 C 111.109375 177.796875 114.402344 176.503906 117.5625 174.203125 C 122.40625 170.675781 127.695313 165.800781 129.75 163.808594 C 130.835938 162.757813 131.058594 162.160156 130.519531 161.636719 C 129.117188 160.273438 128.066406 159.402344 126.765625 158.410156 C 125.40625 157.578125 125.167969 157.785156 123.695313 158.871094 Z M 131.046875 164.351563 C 128.09375 166.949219 124.730469 170.152344 122.375 172.410156 C 120.984375 173.742188 119.648438 174.714844 118.605469 176.515625 C 117.367188 178.640625 117 181.328125 118.441406 182.414063 C 120.523438 183.988281 123.695313 182.414063 126.640625 179.851563 C 131.160156 175.914063 135.292969 171.414063 137.167969 169.246094 C 138.15625 168.105469 138.109375 167.726563 137.597656 167.0625 C 136.367188 165.726563 134.636719 164.621094 133.683594 164.039063 C 132.617188 163.390625 132.324219 163.230469 131.046875 164.351563 Z M 137.753906 169.914063 C 135.195313 172.902344 132.65625 176.289063 130.640625 178.851563 C 129.449219 180.367188 128.164063 181.691406 127.378906 183.617188 C 126.449219 185.894531 126.457031 188.609375 128.039063 189.488281 C 130.320313 190.753906 133.242188 188.753906 135.800781 185.804688 C 139.726563 181.277344 143.292969 176.070313 144.847656 173.664063 C 145.667969 172.394531 145.820313 171.773438 145.136719 171.289063 C 143.691406 170.277344 142.714844 169.835938 141.175781 169.074219 C 139.519531 168.253906 138.863281 168.628906 137.753906 169.914063 Z M 146 173.914063 C 143.707031 177.109375 141.652344 180.566406 139.867188 183.296875 C 138.8125 184.910156 137.886719 186.261719 137.273438 188.246094 C 136.550781 190.597656 136.792969 193.300781 138.445313 194.039063 C 140.828125 195.101563 143.5625 192.855469 145.855469 189.695313 C 149.375 184.839844 152.109375 179.496094 153.449219 176.972656 C 154.15625 175.632813 154.25 175.078125 153.550781 174.703125 C 151.953125 173.867188 150.539063 173.214844 149.003906 172.628906 C 147.546875 172.074219 146.992188 172.53125 146 173.914063 Z M 154.238281 177.40625 C 152.414063 180.886719 150.652344 184.820313 149.261719 187.773438 C 148.441406 189.519531 147.488281 191.097656 147.15625 193.152344 C 146.765625 195.578125 147.386719 198.222656 149.121094 198.722656 C 151.628906 199.441406 154.027344 196.839844 155.855469 193.390625 C 158.664063 188.089844 160.964844 182.214844 161.941406 179.523438 C 162.453125 178.101563 162.515625 177.601563 161.742188 177.269531 C 160.179688 176.597656 158.03125 176.136719 156.824219 175.882813 C 155.375 175.578125 155.027344 175.898438 154.238281 177.40625 Z M 162.621094 180.320313 C 161.234375 183.996094 159.800781 188.289063 158.78125 191.394531 C 158.179688 193.226563 157.425781 194.910156 157.347656 196.988281 C 157.253906 199.445313 158.191406 201.992188 159.976563 202.277344 C 162.550781 202.6875 164.613281 199.8125 166.007813 196.164063 C 168.152344 190.5625 169.722656 184.453125 170.359375 181.660156 C 170.695313 180.1875 170.40625 179.289063 169.59375 179.078125 C 168.105469 178.6875 166.746094 178.535156 165.066406 178.386719 C 163.789063 178.277344 163.222656 178.730469 162.621094 180.320313 Z M 128.84375 80.886719 C 130.585938 75.789063 131.199219 67.296875 133.679688 60.738281 C 135.167969 56.800781 138.085938 54.308594 142.449219 51.859375 C 147.015625 49.296875 151.261719 47.628906 151.328125 46.484375 C 151.363281 45.882813 150.246094 45.285156 147.414063 44.921875 C 145.816406 44.714844 144.230469 44.609375 142.671875 44.628906 C 137.523438 44.695313 132.648438 46.132813 128.609375 49.878906 C 127.199219 51.191406 125.949219 52.757813 124.941406 54.601563 C 123.457031 57.300781 122.433594 62.988281 122.257813 68.804688 C 122.09375 74.109375 123.175781 78.898438 124.257813 82.460938 C 125.738281 87.347656 127.597656 84.535156 128.84375 80.886719 Z M 213.53125 247.203125 C 213.40625 244.683594 214.652344 242.835938 215.878906 241.136719 C 216.851563 239.785156 217.585938 238.429688 217.5625 236.925781 C 217.523438 233.902344 215.007813 231.195313 213.210938 228.433594 C 208.839844 221.445313 210.96875 217.566406 213.652344 217.316406 C 214.96875 217.191406 216.367188 217.777344 217.292969 219.109375 C 219.09375 221.703125 220.578125 226.78125 222.644531 228.949219 C 224.398438 230.785156 226.144531 231.253906 227.832031 231.675781 C 229.195313 232.019531 231.089844 231.769531 233.09375 231.746094 C 236.238281 231.71875 238.25 232.234375 240.328125 234.6875 C 242.726563 237.515625 244.429688 242.023438 244.375 244.988281 C 244.34375 246.722656 243.359375 247.261719 242.425781 247.3125 C 240.574219 247.40625 239.722656 246.574219 239.121094 245.050781 C 237.683594 241.402344 233.917969 238.835938 230.292969 238.835938 C 224.992188 238.835938 221.472656 243.484375 221.34375 247.566406 C 221.289063 249.257813 221.574219 251.414063 219.875 252.453125 C 218.609375 253.230469 217 252.683594 215.917969 251.847656 C 214.648438 250.867188 213.632813 249.21875 213.53125 247.203125 Z M 193.878906 215.894531 C 195.421875 216.902344 197.308594 220.289063 199.785156 226.46875 C 204.523438 238.289063 210.324219 256.765625 212.273438 263.402344 C 213.164063 266.429688 212.53125 269.871094 208.597656 270.113281 C 204.839844 270.347656 203.652344 266.371094 203.023438 263.410156 C 200.566406 251.785156 198.027344 240.175781 195.523438 228.566406 C 194.371094 223.203125 193.578125 218.214844 193.878906 215.894531 Z M 201.597656 264.515625 C 202.703125 271.15625 201.902344 275.03125 198.035156 275.039063 C 193.066406 275.054688 193.128906 267.867188 192.75 264.273438 C 191.929688 256.460938 191.269531 246.179688 190.699219 237.15625 C 190.167969 228.800781 190.046875 221.574219 190.246094 218.550781 C 192.851563 220.691406 193.863281 227.058594 194.59375 230.011719 C 197.390625 241.304688 199.898438 254.324219 201.597656 264.515625 Z M 179.878906 215.894531 C 178.335938 216.902344 176.449219 220.289063 173.972656 226.46875 C 169.230469 238.289063 163.433594 256.765625 161.484375 263.402344 C 160.59375 266.429688 161.226563 269.871094 165.15625 270.113281 C 168.917969 270.347656 170.105469 266.371094 170.734375 263.410156 C 173.191406 251.785156 175.726563 240.175781 178.230469 228.566406 C 179.386719 223.203125 180.179688 218.214844 179.878906 215.894531 Z M 172.160156 264.515625 C 171.050781 271.15625 171.851563 275.03125 175.71875 275.039063 C 180.6875 275.054688 180.628906 267.867188 181.003906 264.273438 C 181.824219 256.460938 182.484375 246.179688 183.058594 237.15625 C 183.589844 228.800781 183.710938 221.574219 183.511719 218.550781 C 180.90625 220.691406 179.894531 227.058594 179.160156 230.011719 C 176.363281 241.304688 173.859375 254.324219 172.160156 264.515625 Z M 186.378906 219.117188 C 190.628906 228.058594 191.742188 271.808594 191.871094 274.722656 C 191.871094 277.636719 189.78125 279.996094 187.199219 279.996094 C 184.617188 279.996094 182.523438 277.636719 182.523438 274.722656 C 182.523438 271.808594 183.34375 225.964844 186.378906 219.117188 Z M 216.210938 211.289063 C 209.761719 215.640625 208.429688 220.027344 207.179688 230.894531 C 203.871094 224.308594 200.75 218.289063 197.808594 212.800781 C 202.621094 205.34375 203.207031 198.730469 203.707031 188.746094 C 206.601563 199.78125 212.453125 206.191406 216.210938 211.289063 Z M 245.757813 98.976563 C 246.941406 95.117188 247.714844 91.074219 248.054688 86.894531 C 250.796875 89.011719 253.632813 92.023438 256.183594 95.496094 C 262 103.414063 265.550781 112.09375 265.453125 121.886719 C 265.296875 137.179688 256.214844 150.820313 244.171875 159.921875 C 233.640625 167.878906 216.792969 174.816406 203.84375 176.03125 L 203.84375 159.734375 C 231.46875 154.246094 249.136719 136.21875 249.136719 114.324219 C 249.136719 108.933594 247.949219 103.773438 245.757813 98.976563 Z M 203.84375 156.269531 C 229.457031 151.078125 245.921875 134.867188 246.359375 115.136719 C 246.441406 111.277344 245.6875 107.179688 244.085938 103.664063 C 237.414063 119.996094 225.425781 131.894531 203.84375 137.242188 Z M 230.570313 240.628906 C 226.253906 240.628906 222.753906 244.308594 222.753906 248.851563 C 222.753906 253.1875 225.941406 256.742188 229.984375 257.054688 L 230.652344 259.953125 L 225.082031 261.339844 L 226.144531 265.597656 L 242.769531 261.449219 L 241.710938 257.195313 L 235.746094 258.679688 L 235.035156 255.601563 C 237.058594 254.113281 238.382813 251.644531 238.382813 248.851563 C 238.382813 244.308594 234.882813 240.628906 230.570313 240.628906 Z M 244.164063 249.394531 C 244.730469 247.59375 243.175781 247.585938 240.410156 248.988281 C 239.953125 252.175781 239.046875 254.578125 237.394531 256.742188 C 240.347656 255.863281 243.441406 251.714844 244.164063 249.394531 Z M 218.699219 254.925781 C 217.476563 253.488281 218.902344 252.871094 221.996094 253.085938 C 223.507813 255.585938 225.195313 257.5625 227.800781 259.046875 C 224.742188 259.386719 220.273438 256.78125 218.699219 254.925781 Z M 185.894531 59.746094 C 198.207031 59.746094 208.1875 69.726563 208.1875 82.039063 C 208.1875 94.351563 198.207031 104.328125 185.894531 104.328125 C 173.585938 104.328125 163.601563 94.351563 163.601563 82.039063 C 163.601563 69.726563 173.585938 59.746094 185.894531 59.746094 Z M 185.894531 57.03125 C 199.707031 57.03125 210.902344 68.230469 210.902344 82.039063 C 210.902344 95.847656 199.707031 107.039063 185.894531 107.039063 C 172.085938 107.039063 160.890625 95.847656 160.890625 82.039063 C 160.890625 68.230469 172.085938 57.03125 185.894531 57.03125 Z M 173.695313 123.40625 C 174.355469 122.453125 176.261719 121.773438 177.964844 121.902344 C 179.734375 122.035156 180.671875 123.429688 180.601563 125.371094 C 180.472656 128.972656 179.132813 131.445313 179.191406 134.929688 C 177.175781 134.214844 177.3125 131.152344 177.339844 128.390625 C 177.359375 126.121094 176.988281 124.164063 173.695313 123.40625 Z M 182.242188 121.097656 C 183.515625 120.671875 185.515625 120.269531 187.523438 120.324219 C 190.53125 120.414063 193.480469 121.46875 193.488281 124.527344 C 193.492188 126.425781 192.339844 128.953125 190.066406 132.121094 C 193.285156 130.699219 196.355469 126.785156 196.402344 123.269531 C 196.472656 118.175781 189.519531 114.441406 185.113281 114.320313 C 184.402344 114.300781 183.660156 114.257813 182.914063 114.535156 C 183.535156 115.402344 184.417969 116.769531 184.792969 117.554688 C 184.003906 118.164063 182.304688 119.164063 182.242188 121.097656 Z M 177.148438 114.714844 C 178.820313 114.714844 180.171875 115.609375 180.171875 116.710938 C 180.171875 117.816406 178.820313 118.710938 177.148438 118.710938 C 175.480469 118.710938 174.128906 117.816406 174.128906 116.710938 C 174.128906 115.609375 175.480469 114.714844 177.148438 114.714844 Z M 174.949219 108.847656 C 168.015625 111.230469 163.417969 116.144531 163.472656 121.164063 C 163.492188 122.890625 164.109375 125.34375 165.265625 126.277344 C 165.894531 124.511719 166.910156 123.378906 167.96875 123.40625 C 170.128906 124.269531 170.136719 127.863281 169.515625 132.285156 C 169.328125 133.640625 168.855469 133.992188 170.023438 134.664063 C 175.632813 137.910156 196.375 138.398438 203.195313 135.703125 C 204.769531 135.078125 204.535156 134.726563 204.542969 132.996094 C 204.554688 129.21875 203.382813 124.355469 201.222656 119.980469 C 199.152344 115.789063 196.175781 112.046875 192.464844 110.136719 C 205.230469 107.160156 214.746094 95.710938 214.746094 82.039063 C 214.746094 66.105469 201.828125 53.191406 185.894531 53.191406 C 169.964844 53.191406 157.046875 66.105469 157.046875 82.039063 C 157.046875 94.152344 164.515625 104.519531 175.097656 108.796875 C 175.046875 108.8125 174.996094 108.828125 174.949219 108.847656 Z M 120.070313 68.601563 C 119.523438 64.9375 119.425781 62.335938 121.015625 58.519531 C 121.984375 56.1875 123.425781 53.613281 125.191406 51.078125 C 126.789063 48.789063 130.988281 45.652344 125.105469 45.851563 C 118.308594 46.078125 109.761719 54.089844 109.015625 64.554688 C 108.78125 67.871094 109.226563 70.449219 110.324219 74.050781 C 111.546875 78.054688 113.726563 83.0625 115.332031 86.300781 C 116.601563 88.578125 117.167969 89.777344 119.089844 89.820313 C 120.960938 89.863281 122.207031 88.589844 122.78125 87.488281 C 123.457031 86.179688 123.292969 84.511719 122.949219 82.886719 C 122.636719 81.394531 122.292969 79.902344 121.949219 78.40625 C 121.183594 75.054688 120.578125 72.007813 120.070313 68.601563 Z M 114.050781 96.578125 C 115.085938 96.191406 116.566406 94.757813 116.90625 93.515625 C 117.332031 91.96875 116.789063 90.320313 115.648438 88.496094 C 112.03125 82.730469 108.117188 72.789063 106.164063 68.546875 C 103.167969 61.695313 101.824219 55.574219 99.929688 55.78125 C 98.46875 55.9375 96.863281 57.671875 95.847656 60.113281 C 95.042969 62.046875 94.699219 64.371094 94.710938 66.753906 C 94.742188 72.699219 96.636719 77.464844 99.804688 82.421875 C 102.625 86.828125 107.632813 93.460938 109.984375 95.941406 C 111.390625 97.421875 113.046875 96.960938 114.050781 96.578125 Z M 108.996094 96.015625 C 105.242188 91.921875 101.6875 87.621094 98.433594 83.085938 C 96.195313 79.96875 93.972656 76.855469 91.753906 73.734375 C 90.660156 72.191406 89.25 71.054688 88.402344 72.253906 C 85.542969 76.300781 86.742188 82.5625 89.167969 87.121094 C 91.589844 91.671875 98.472656 98.488281 103.953125 102.359375 C 105.480469 103.4375 106.703125 104.148438 107.6875 104.257813 C 109.226563 104.425781 110.117188 103.335938 110.800781 102.378906 C 111.851563 100.902344 111.765625 99.039063 108.996094 96.015625 Z M 89.1875 103.914063 C 83.816406 99.710938 81.058594 94.714844 81.003906 90.234375 C 80.972656 87.933594 81.621094 86.257813 82.746094 86.195313 C 84.679688 86.085938 87.609375 89.664063 90.851563 92.621094 C 93.59375 95.128906 98.734375 99.410156 105.257813 104.285156 C 107.003906 105.59375 109.40625 107.515625 108.898438 109.054688 C 108.636719 109.847656 107.863281 111.265625 106.59375 112.109375 C 106.234375 112.347656 105.746094 112.40625 105.203125 112.414063 C 104.558594 112.414063 103.683594 112.203125 102.679688 111.699219 C 98.183594 109.4375 93.46875 107.273438 89.1875 103.914063 Z M 88.519531 136.65625 C 85.636719 135.324219 82.351563 132.679688 81.457031 130.054688 C 80.726563 127.925781 82.007813 127.816406 84.007813 128.1875 C 88.289063 128.980469 92.632813 129.523438 96.984375 129.769531 C 100.984375 129.992188 105.214844 130.015625 108.019531 130.101563 C 108.742188 130.121094 109.332031 130.503906 109.722656 131.21875 C 110.203125 132.101563 110.457031 133.058594 110.453125 134.066406 C 110.449219 135.347656 109.957031 135.703125 108.683594 136.109375 C 105.472656 137.132813 100.742188 137.683594 98.136719 137.78125 C 94.410156 137.921875 90.394531 137.523438 88.519531 136.65625 Z M 89.589844 126.992188 C 85.964844 125.484375 82.800781 123.109375 81.167969 120.46875 C 80.207031 118.914063 80.011719 117.824219 80.117188 117.066406 C 80.453125 114.652344 82.195313 115.703125 83.75 116.261719 C 87.109375 117.460938 91.742188 119.59375 98.523438 121.089844 C 101.535156 121.753906 103.679688 122.09375 105.21875 122.472656 C 106.355469 122.746094 107.46875 123.402344 107.738281 123.945313 C 108.410156 125.285156 108.558594 126.703125 107.9375 127.949219 C 107.632813 128.5625 106.296875 128.859375 104.679688 128.863281 C 100.0625 128.871094 93.824219 128.753906 89.589844 126.992188 Z M 79.125 102.160156 C 79.617188 99.796875 80.972656 100.539063 83.175781 101.992188 C 84.347656 102.761719 85.496094 103.496094 86.652344 104.210938 C 91.328125 107.078125 97.660156 110.628906 102.648438 112.828125 C 105.746094 114.195313 107.148438 114.953125 107.382813 116.851563 C 107.566406 118.316406 107.066406 120.433594 105.839844 120.972656 C 102.859375 122.28125 92.4375 117.855469 89.035156 116.316406 C 84.210938 114.132813 77.894531 108.0625 79.125 102.160156 Z M 278.265625 140.097656 C 281.285156 140.484375 284.566406 140.734375 286.636719 140.695313 C 288.792969 140.65625 291.003906 140.746094 291.179688 141.550781 C 291.480469 142.90625 288.273438 147.5625 281.007813 148.328125 C 275.007813 148.96875 271.863281 147.496094 263.386719 144.179688 C 261.683594 143.511719 261.1875 142.640625 261.660156 141.308594 C 261.921875 140.574219 262.304688 139.640625 263.222656 138.59375 C 264.050781 137.648438 265.910156 137.824219 269.324219 138.554688 C 272.488281 139.230469 276.589844 139.882813 278.265625 140.097656 Z M 263.835938 145.4375 C 267.46875 146.933594 271.632813 148.855469 274.59375 150.222656 C 276.34375 151.03125 278.089844 151.628906 279.664063 152.988281 C 281.523438 154.597656 282.746094 157.019531 281.738281 158.519531 C 280.28125 160.683594 276.773438 160.226563 273.152344 158.761719 C 267.59375 156.507813 261.734375 153.40625 259.257813 151.972656 C 257.949219 151.210938 257.15625 150.589844 257.421875 149.789063 C 258.316406 148.183594 259.316406 146.820313 260.351563 145.632813 C 261.679688 144.347656 262.261719 144.789063 263.835938 145.4375 Z M 257.730469 152.554688 C 261.222656 154.359375 265.484375 156.835938 268.316406 158.453125 C 269.988281 159.414063 271.675781 160.164063 273.125 161.65625 C 274.835938 163.414063 275.847656 165.9375 274.710938 167.34375 C 273.070313 169.371094 269.613281 168.613281 266.136719 166.839844 C 260.796875 164.109375 254.898438 160.296875 252.554688 158.648438 C 251.316406 157.777344 251.101563 157.496094 251.523438 156.777344 C 252.421875 155.226563 253.90625 153.578125 254.867188 152.609375 C 255.945313 151.523438 256.21875 151.773438 257.730469 152.554688 Z M 251.839844 159.589844 C 254.972656 161.902344 258.953125 164.988281 261.4375 166.988281 C 262.941406 168.195313 264.492188 169.199219 265.6875 170.898438 C 267.101563 172.910156 267.707031 175.554688 266.363281 176.765625 C 264.425781 178.511719 261.132813 177.222656 257.972656 174.925781 C 253.128906 171.394531 247.839844 166.519531 245.785156 164.527344 C 244.699219 163.472656 244.476563 162.878906 245.015625 162.355469 C 246.417969 160.992188 247.46875 160.117188 248.769531 159.128906 C 250.128906 158.296875 250.371094 158.503906 251.839844 159.589844 Z M 244.488281 165.070313 C 247.441406 167.664063 250.804688 170.867188 253.160156 173.128906 C 254.550781 174.460938 255.886719 175.433594 256.929688 177.230469 C 258.167969 179.359375 258.535156 182.046875 257.09375 183.136719 C 255.011719 184.703125 251.839844 183.136719 248.898438 180.570313 C 244.375 176.632813 240.242188 172.132813 238.367188 169.96875 C 237.378906 168.824219 237.425781 168.445313 237.9375 167.78125 C 239.167969 166.445313 240.898438 165.339844 241.851563 164.757813 C 242.917969 164.109375 243.210938 163.949219 244.488281 165.070313 Z M 237.78125 170.636719 C 240.34375 173.617188 242.878906 177.003906 244.894531 179.570313 C 246.085938 181.085938 247.371094 182.410156 248.15625 184.335938 C 249.085938 186.613281 249.078125 189.328125 247.496094 190.203125 C 245.214844 191.472656 242.292969 189.472656 239.734375 186.523438 C 235.808594 181.992188 232.242188 176.785156 230.6875 174.382813 C 229.867188 173.113281 229.714844 172.492188 230.398438 172.007813 C 231.84375 170.996094 232.820313 170.554688 234.359375 169.789063 C 236.015625 168.96875 236.671875 169.347656 237.78125 170.636719 Z M 229.535156 174.632813 C 231.828125 177.824219 233.882813 181.285156 235.667969 184.015625 C 236.722656 185.628906 237.648438 186.980469 238.261719 188.964844 C 238.984375 191.316406 238.742188 194.019531 237.089844 194.753906 C 234.707031 195.820313 231.972656 193.574219 229.679688 190.410156 C 226.160156 185.558594 223.425781 180.21875 222.085938 177.691406 C 221.378906 176.351563 221.285156 175.789063 221.984375 175.425781 C 223.582031 174.585938 224.996094 173.933594 226.53125 173.347656 C 227.988281 172.789063 228.542969 173.246094 229.535156 174.632813 Z M 221.296875 178.121094 C 223.121094 181.605469 224.882813 185.539063 226.273438 188.492188 C 227.09375 190.234375 228.046875 191.816406 228.378906 193.871094 C 228.769531 196.296875 228.152344 198.9375 226.414063 199.441406 C 223.90625 200.160156 221.507813 197.554688 219.679688 194.105469 C 216.871094 188.808594 214.570313 182.933594 213.59375 180.242188 C 213.082031 178.820313 213.019531 178.320313 213.792969 177.988281 C 215.355469 177.316406 217.503906 176.855469 218.710938 176.601563 C 220.160156 176.300781 220.507813 176.617188 221.296875 178.121094 Z M 212.914063 181.039063 C 214.300781 184.714844 215.734375 189.011719 216.753906 192.113281 C 217.355469 193.945313 218.109375 195.628906 218.1875 197.703125 C 218.28125 200.164063 217.34375 202.710938 215.558594 202.996094 C 212.984375 203.40625 210.921875 200.53125 209.527344 196.882813 C 207.382813 191.28125 205.8125 185.164063 205.175781 182.378906 C 204.839844 180.902344 205.128906 180.007813 205.941406 179.796875 C 207.429688 179.40625 208.789063 179.253906 210.46875 179.105469 C 211.746094 178.996094 212.3125 179.445313 212.914063 181.039063 Z M 246.691406 81.601563 C 244.949219 76.511719 244.335938 68.015625 241.855469 61.453125 C 240.367188 57.519531 237.449219 55.027344 233.085938 52.578125 C 228.519531 50.015625 224.273438 48.347656 224.207031 47.203125 C 224.171875 46.601563 225.289063 46.003906 228.121094 45.636719 C 229.71875 45.433594 231.304688 45.328125 232.863281 45.347656 C 238.011719 45.414063 242.886719 46.851563 246.925781 50.597656 C 248.335938 51.90625 249.585938 53.476563 250.59375 55.316406 C 252.078125 58.019531 253.101563 63.703125 253.277344 69.523438 C 253.441406 74.828125 252.359375 79.617188 251.277344 83.179688 C 249.796875 88.066406 247.9375 85.246094 246.691406 81.601563 Z M 255.464844 69.320313 C 256.011719 65.65625 256.109375 63.054688 254.519531 59.238281 C 253.550781 56.90625 252.109375 54.328125 250.34375 51.800781 C 248.746094 49.511719 244.546875 46.371094 250.429688 46.566406 C 257.226563 46.796875 265.773438 54.808594 266.519531 65.273438 C 266.753906 68.589844 266.308594 71.164063 265.210938 74.769531 C 263.988281 78.773438 261.808594 83.78125 260.203125 87.015625 C 258.933594 89.296875 258.367188 90.496094 256.445313 90.539063 C 254.574219 90.578125 253.328125 89.308594 252.753906 88.203125 C 252.078125 86.898438 252.242188 85.230469 252.585938 83.605469 C 252.898438 82.113281 253.242188 80.617188 253.585938 79.121094 C 254.351563 75.773438 254.957031 72.726563 255.464844 69.320313 Z M 261.484375 97.300781 C 260.449219 96.910156 258.96875 95.476563 258.628906 94.230469 C 258.203125 92.6875 258.746094 91.039063 259.886719 89.21875 C 263.503906 83.449219 267.417969 73.507813 269.371094 69.265625 C 272.367188 62.414063 273.710938 56.289063 275.605469 56.496094 C 277.066406 56.65625 278.671875 58.390625 279.6875 60.828125 C 280.492188 62.765625 280.835938 65.089844 280.824219 67.472656 C 280.792969 73.414063 278.898438 78.179688 275.730469 83.140625 C 272.910156 87.546875 267.902344 94.179688 265.550781 96.660156 C 264.144531 98.136719 262.488281 97.675781 261.484375 97.300781 Z M 266.539063 96.734375 C 270.292969 92.640625 273.847656 88.34375 277.101563 83.804688 C 279.339844 80.6875 281.5625 77.574219 283.78125 74.453125 C 284.878906 72.910156 286.285156 71.773438 287.132813 72.972656 C 289.992188 77.019531 288.792969 83.28125 286.367188 87.84375 C 283.945313 92.390625 277.0625 99.203125 271.582031 103.078125 C 270.054688 104.15625 268.832031 104.867188 267.847656 104.976563 C 266.308594 105.144531 265.417969 104.054688 264.734375 103.097656 C 263.683594 101.621094 263.769531 99.753906 266.539063 96.734375 Z M 286.347656 104.636719 C 291.71875 100.425781 294.476563 95.433594 294.53125 90.953125 C 294.5625 88.648438 293.914063 86.976563 292.789063 86.914063 C 290.855469 86.804688 287.925781 90.386719 284.683594 93.34375 C 281.941406 95.847656 276.800781 100.121094 270.277344 105.003906 C 268.53125 106.308594 266.765625 107.683594 266.933594 109.289063 C 267.027344 110.234375 267.65625 111.949219 268.777344 112.84375 C 269.675781 113.566406 271.957031 112.867188 272.855469 112.414063 C 277.351563 110.152344 282.066406 107.992188 286.347656 104.636719 Z M 287.015625 137.371094 C 289.898438 136.039063 293.183594 133.398438 294.078125 130.773438 C 294.808594 128.644531 293.527344 128.535156 291.527344 128.90625 C 287.246094 129.699219 282.902344 130.242188 278.550781 130.488281 C 274.550781 130.710938 270.238281 130.746094 267.4375 130.835938 C 266.714844 130.855469 266.121094 131.234375 265.734375 131.949219 C 265.253906 132.835938 265 133.789063 265.003906 134.800781 C 265.007813 136.078125 265.5 136.4375 266.769531 136.84375 C 269.984375 137.867188 274.792969 138.402344 277.398438 138.496094 C 281.125 138.640625 285.140625 138.242188 287.015625 137.371094 Z M 285.945313 127.710938 C 289.570313 126.203125 292.734375 123.828125 294.367188 121.1875 C 295.328125 119.636719 295.523438 118.539063 295.417969 117.78125 C 295.082031 115.371094 293.339844 116.421875 291.785156 116.976563 C 288.425781 118.179688 283.792969 120.3125 277.011719 121.808594 C 274 122.472656 271.839844 122.78125 270.300781 123.160156 C 269.164063 123.4375 268.050781 124.089844 267.78125 124.632813 C 267.109375 125.972656 266.976563 127.421875 267.597656 128.664063 C 267.902344 129.28125 269.238281 129.578125 270.855469 129.578125 C 275.472656 129.59375 281.710938 129.472656 285.945313 127.710938 Z M 296.410156 102.878906 C 295.917969 100.515625 294.5625 101.261719 292.359375 102.710938 C 291.1875 103.480469 290.039063 104.21875 288.882813 104.929688 C 284.207031 107.789063 277.875 111.347656 272.886719 113.546875 C 269.789063 114.910156 268.386719 115.675781 268.152344 117.566406 C 267.96875 119.035156 268.46875 121.148438 269.695313 121.691406 C 272.675781 122.996094 283.097656 118.574219 286.5 117.035156 C 291.324219 114.851563 297.640625 108.78125 296.410156 102.878906 Z M 296.410156 102.878906 "/>
<g clip-path="url(#clip1)" clip-rule="nonzero">
<path style=" stroke:none;fill-rule:evenodd;fill:rgb(3.137207%,40.795898%,0.784302%);fill-opacity:1;" d="M 187.765625 7.511719 C 170.019531 20.769531 152.84375 28.308594 135.210938 28.824219 C 117.589844 29.335938 99.722656 22.835938 80.636719 8.03125 L 7.984375 81.777344 C 19.65625 99.695313 27.085938 116.027344 30.183594 131.585938 C 33.445313 147.972656 31.90625 163.433594 25.464844 178.878906 C 15.019531 205.578125 8.851563 224.6875 7.742188 242.164063 C 6.644531 259.476563 10.511719 275.429688 20.109375 296.011719 C 30.667969 316.617188 43.828125 330.363281 59.328125 339.390625 C 74.921875 348.472656 92.960938 352.851563 113.148438 354.664063 L 113.238281 354.671875 L 113.238281 354.664063 C 128.359375 356.445313 139.210938 356.484375 147.929688 356.515625 C 164.230469 356.570313 173.488281 356.605469 187.765625 366.789063 C 202.046875 356.605469 211.304688 356.570313 227.605469 356.515625 C 236.324219 356.484375 247.171875 356.445313 262.292969 354.664063 C 262.398438 354.65625 262.503906 354.648438 262.605469 354.648438 C 282.703125 352.820313 300.667969 348.441406 316.203125 339.390625 C 331.703125 330.363281 344.863281 316.617188 355.425781 296.011719 C 365.019531 275.429688 368.890625 259.476563 367.792969 242.164063 C 366.679688 224.6875 360.515625 205.578125 350.070313 178.878906 C 343.625 163.433594 342.085938 147.972656 345.347656 131.585938 C 348.445313 116.027344 355.875 99.695313 367.550781 81.777344 L 294.894531 8.03125 C 275.808594 22.835938 257.945313 29.335938 240.324219 28.824219 C 222.6875 28.308594 205.511719 20.769531 187.765625 7.511719 Z M 135.03125 22.328125 C 151.8125 21.839844 168.382813 14.238281 185.746094 0.890625 C 186.886719 -0.0195313 188.542969 -0.0703125 189.753906 0.863281 C 207.128906 14.226563 223.710938 21.839844 240.5 22.328125 C 257.25 22.816406 274.445313 16.210938 293.128906 1.140625 C 294.414063 0.105469 296.300781 0.191406 297.484375 1.394531 L 373.9375 78.996094 C 375.074219 80.0625 375.3125 81.824219 374.425781 83.164063 C 362.386719 101.242188 354.789063 117.515625 351.742188 132.828125 C 348.734375 147.9375 350.152344 162.179688 356.085938 176.398438 L 356.117188 176.476563 C 366.804688 203.800781 373.121094 223.441406 374.285156 241.761719 C 375.460938 260.246094 371.394531 277.140625 361.292969 298.789063 L 361.242188 298.894531 C 350.054688 320.746094 336.03125 335.367188 319.464844 345.019531 C 303.042969 354.582031 284.203125 359.199219 263.203125 361.113281 L 263.03125 361.136719 C 247.710938 362.9375 236.5625 362.976563 227.605469 363.007813 C 212.007813 363.0625 203.449219 363.09375 189.761719 373.394531 C 188.628906 374.277344 187.003906 374.328125 185.804688 373.421875 C 172.097656 363.09375 163.539063 363.0625 147.929688 363.007813 C 138.972656 362.976563 127.820313 362.9375 112.5 361.136719 L 112.5 361.128906 C 91.429688 359.222656 72.53125 354.609375 56.066406 345.019531 C 39.523438 335.378906 25.511719 320.785156 14.335938 298.976563 L 14.238281 298.789063 C 4.140625 277.140625 0.0742188 260.246094 1.246094 241.761719 C 2.410156 223.445313 8.722656 203.808594 19.410156 176.492188 L 19.441406 176.414063 C 25.378906 162.1875 26.800781 147.941406 23.792969 132.828125 C 20.742188 117.515625 13.148438 101.242188 1.109375 83.164063 C 0.277344 81.910156 0.40625 80.203125 1.503906 79.089844 L 77.996094 1.449219 C 79.144531 0.21875 81.070313 0.0664063 82.402344 1.140625 C 101.085938 16.210938 118.28125 22.816406 135.03125 22.328125 Z M 135.03125 22.328125 "/>
</g>
<path style=" stroke:none;fill-rule:evenodd;fill:rgb(3.137207%,40.795898%,0.784302%);fill-opacity:1;" d="M 200.253906 336.707031 L 202.671875 336.707031 C 203.921875 336.707031 204.949219 337.710938 204.949219 338.941406 L 204.949219 344.398438 C 204.949219 345.621094 203.921875 346.628906 202.671875 346.628906 L 200.253906 346.628906 C 199 346.628906 197.972656 345.621094 197.972656 344.398438 L 197.972656 338.941406 C 197.972656 337.710938 199 336.707031 200.253906 336.707031 Z M 199.394531 335.121094 L 203.53125 335.121094 C 205.675781 335.121094 207.433594 336.84375 207.433594 338.945313 L 207.433594 344.390625 C 207.433594 346.492188 205.675781 348.210938 203.53125 348.210938 L 199.394531 348.210938 C 197.246094 348.210938 195.492188 346.492188 195.492188 344.390625 L 195.492188 338.945313 C 195.492188 336.84375 197.246094 335.121094 199.394531 335.121094 Z M 199.394531 335.121094 "/>
<path style=" stroke:none;fill-rule:evenodd;fill:rgb(3.137207%,40.795898%,0.784302%);fill-opacity:1;" d="M 165.859375 339.523438 L 165.859375 347.828125 C 165.859375 348.039063 165.683594 348.210938 165.464844 348.210938 L 163.574219 348.210938 C 163.355469 348.210938 163.179688 348.039063 163.179688 347.828125 L 163.179688 338.558594 C 163.179688 337.179688 162.867188 336.664063 161.53125 336.664063 C 160.480469 336.1875 160.574219 335.484375 161.445313 335.121094 C 162.261719 335.121094 163.074219 335.121094 163.890625 335.121094 C 165.3125 335.121094 165.859375 335.964844 165.859375 337.207031 Z M 165.859375 339.523438 "/>
<path style=" stroke:none;fill-rule:evenodd;fill:rgb(3.137207%,40.795898%,0.784302%);fill-opacity:1;" d="M 169.640625 346.589844 L 175 346.589844 L 175.035156 346.59375 C 176.257813 346.503906 177.089844 346.011719 177.089844 345.277344 C 177.089844 344.914063 177.089844 344.558594 177.089844 344.195313 C 177.089844 343.191406 176.460938 342.960938 175.632813 342.960938 L 171.535156 342.960938 C 169.714844 342.960938 168.222656 341.503906 168.222656 339.71875 L 168.222656 338.367188 C 168.222656 336.582031 169.714844 335.121094 171.535156 335.121094 L 176.460938 335.121094 C 178.28125 335.121094 179.769531 336.582031 179.769531 338.367188 L 179.769531 344.855469 C 179.769531 346.078125 178.652344 348.210938 176.847656 348.210938 L 169.640625 348.210938 C 169.273438 348.210938 168.972656 347.914063 168.972656 347.558594 L 168.972656 347.246094 C 168.972656 346.886719 169.273438 346.589844 169.640625 346.589844 Z M 172.984375 336.664063 L 175.113281 336.664063 C 176.003906 336.664063 177.089844 337.476563 177.089844 338.191406 L 177.089844 340.304688 C 177.089844 340.859375 176.523438 341.304688 176.074219 341.304688 L 172.984375 341.304688 C 171.753906 341.304688 170.746094 340.316406 170.746094 339.109375 L 170.746094 338.863281 C 170.746094 337.65625 171.753906 336.664063 172.984375 336.664063 Z M 172.984375 336.664063 "/>
<path style=" stroke:none;fill-rule:evenodd;fill:rgb(3.137207%,40.795898%,0.784302%);fill-opacity:1;" d="M 183.472656 335.121094 L 190.488281 335.121094 C 192.164063 335.121094 193.328125 336.214844 193.324219 337.554688 C 193.324219 338.277344 193.324219 338.996094 193.324219 339.71875 C 193.269531 341.121094 189.84375 343.226563 186.445313 345.265625 C 185.207031 346.074219 185.765625 346.589844 186.507813 346.589844 L 192.144531 346.589844 C 192.597656 346.589844 192.96875 346.957031 192.96875 347.402344 C 192.96875 347.847656 192.597656 348.210938 192.144531 348.210938 L 182.8125 348.210938 C 182.042969 348.210938 180.886719 346.164063 183.550781 344.660156 C 185.46875 343.539063 187.65625 342.195313 189.589844 340.964844 C 191.925781 339.46875 190.855469 336.664063 188.902344 336.664063 L 183.472656 336.664063 C 183.039063 336.664063 182.6875 336.320313 182.6875 335.894531 C 182.6875 335.472656 183.039063 335.121094 183.472656 335.121094 Z M 183.472656 335.121094 "/>
<path style=" stroke:none;fill-rule:evenodd;fill:rgb(3.137207%,40.795898%,0.784302%);fill-opacity:1;" d="M 166.921875 316.160156 L 166.921875 321.488281 C 166.921875 323.519531 165.238281 325.183594 163.179688 325.183594 L 157.464844 325.183594 C 155.40625 325.183594 153.722656 323.519531 153.722656 321.488281 L 153.722656 312.785156 C 153.722656 311.355469 155.902344 311.335938 155.902344 312.785156 L 155.902344 321.402344 C 155.902344 322.601563 156.898438 323.582031 158.113281 323.582031 L 162.589844 323.582031 C 163.804688 323.582031 164.800781 322.601563 164.800781 321.402344 L 164.800781 316.160156 C 164.800781 314.992188 166.921875 314.871094 166.921875 316.160156 Z M 237.183594 310.652344 L 236.835938 310.3125 C 236.449219 309.933594 236.449219 309.308594 236.832031 308.921875 C 237.023438 308.734375 237.28125 308.636719 237.535156 308.636719 L 238.875 309.949219 C 238.875 310.203125 238.78125 310.453125 238.589844 310.648438 C 238.203125 311.03125 237.570313 311.03125 237.183594 310.652344 Z M 199.875 326.621094 L 200.363281 326.621094 C 200.910156 326.621094 201.355469 327.0625 201.355469 327.605469 C 201.355469 327.871094 201.242188 328.121094 201.0625 328.292969 L 199.175781 328.292969 C 198.992188 328.121094 198.882813 327.871094 198.882813 327.605469 C 198.882813 327.0625 199.328125 326.621094 199.875 326.621094 Z M 121.351563 312.277344 L 121.839844 312.277344 C 122.386719 312.277344 122.832031 311.835938 122.832031 311.292969 C 122.832031 311.027344 122.722656 310.78125 122.539063 310.605469 L 120.652344 310.605469 C 120.472656 310.78125 120.359375 311.027344 120.359375 311.292969 C 120.359375 311.835938 120.804688 312.277344 121.351563 312.277344 Z M 117.703125 312.277344 L 118.191406 312.277344 C 118.738281 312.277344 119.183594 311.835938 119.183594 311.292969 C 119.183594 311.027344 119.074219 310.78125 118.890625 310.605469 L 117.003906 310.605469 C 116.824219 310.78125 116.710938 311.027344 116.710938 311.292969 C 116.710938 311.835938 117.15625 312.277344 117.703125 312.277344 Z M 143.199219 311.707031 C 142.652344 311.707031 142.207031 312.148438 142.207031 312.691406 C 142.207031 312.960938 142.316406 313.207031 142.5 313.382813 L 144.386719 313.382813 C 144.566406 313.207031 144.679688 312.960938 144.679688 312.691406 C 144.679688 312.148438 144.234375 311.707031 143.6875 311.707031 Z M 165.441406 326.621094 L 165.929688 326.621094 C 166.476563 326.621094 166.921875 327.0625 166.921875 327.605469 C 166.921875 327.871094 166.808594 328.121094 166.628906 328.292969 L 164.742188 328.292969 C 164.558594 328.121094 164.449219 327.871094 164.449219 327.605469 C 164.449219 327.0625 164.894531 326.621094 165.441406 326.621094 Z M 161.714844 326.621094 L 162.203125 326.621094 C 162.75 326.621094 163.195313 327.0625 163.195313 327.605469 C 163.195313 327.871094 163.085938 328.121094 162.902344 328.292969 L 161.015625 328.292969 C 160.835938 328.121094 160.722656 327.871094 160.722656 327.605469 C 160.722656 327.0625 161.167969 326.621094 161.714844 326.621094 Z M 131.707031 326.621094 L 132.195313 326.621094 C 132.738281 326.621094 133.1875 327.0625 133.1875 327.605469 C 133.1875 327.871094 133.074219 328.121094 132.894531 328.292969 L 131.007813 328.292969 C 130.824219 328.121094 130.714844 327.871094 130.714844 327.605469 C 130.714844 327.0625 131.160156 326.621094 131.707031 326.621094 Z M 128.46875 326.621094 L 128.957031 326.621094 C 129.5 326.621094 129.949219 327.0625 129.949219 327.605469 C 129.949219 327.871094 129.835938 328.121094 129.65625 328.292969 L 127.769531 328.292969 C 127.585938 328.121094 127.476563 327.871094 127.476563 327.605469 C 127.476563 327.0625 127.921875 326.621094 128.46875 326.621094 Z M 137.027344 315.203125 L 137.328125 315.203125 C 137.542969 315.203125 137.738281 315.285156 137.882813 315.414063 L 137.886719 315.390625 L 139.335938 316.078125 C 139.8125 315.539063 140.402344 315.203125 141.261719 315.203125 L 148.589844 315.203125 C 150.039063 315.203125 151.765625 316.757813 151.765625 318.496094 L 151.765625 321.722656 C 151.765625 323.582031 149.613281 325.183594 147.976563 325.183594 L 139.78125 325.183594 C 139.023438 325.183594 138.320313 325.042969 137.671875 324.785156 C 136.609375 324.941406 135.507813 325.183594 134.570313 325.183594 C 132.769531 325.171875 131.347656 324.867188 130.363281 324.199219 C 129.664063 324.722656 128.757813 325.097656 127.464844 325.183594 C 126.722656 325.183594 126.171875 325.183594 125.429688 325.183594 C 124.851563 325.183594 124.449219 325.027344 124.0625 324.777344 C 123.902344 325.023438 123.625 325.183594 123.3125 325.183594 L 122.976563 325.183594 C 122.488281 325.183594 122.085938 324.785156 122.085938 324.296875 L 122.085938 324.632813 L 121.75 325.183594 L 118.296875 325.183594 C 115.570313 325.183594 113.953125 323.105469 113.890625 319.988281 C 113.847656 317.289063 115.125 315.203125 117.542969 315.203125 L 122.085938 315.203125 L 122.085938 314.667969 C 122.085938 314.1875 122.488281 313.789063 122.976563 313.789063 L 123.3125 313.789063 C 123.800781 313.789063 124.203125 314.1875 124.203125 314.667969 L 124.203125 322.933594 C 124.683594 323.355469 125.402344 323.582031 126.460938 323.582031 C 128.628906 323.582031 129.21875 322.664063 129.21875 321.335938 L 129.21875 316.082031 C 129.21875 315.597656 129.621094 315.203125 130.113281 315.203125 L 130.445313 315.203125 C 130.9375 315.203125 131.339844 315.597656 131.339844 316.082031 L 131.339844 321.855469 C 131.585938 322.832031 132.148438 323.597656 133.875 323.582031 C 134.179688 323.582031 134.488281 323.582031 134.792969 323.582031 C 135.832031 323.476563 136.214844 323.039063 136.214844 322.492188 L 136.214844 315.996094 C 136.214844 315.5625 136.578125 315.203125 137.027344 315.203125 Z M 122.085938 317.671875 C 122.085938 316.988281 121.660156 316.449219 121.027344 316.449219 L 118.351563 316.449219 C 116.898438 316.449219 115.875 318.648438 115.953125 320.015625 C 116.058594 322.203125 116.910156 323.582031 118.851563 323.582031 L 120.859375 323.582031 C 121.617188 323.613281 122.070313 323.207031 122.085938 322.132813 Z M 138.136719 320.28125 L 138.136719 321.683594 C 138.136719 323.101563 138.996094 323.582031 140.308594 323.582031 C 142.578125 323.582031 144.847656 323.582031 147.121094 323.582031 C 148.503906 323.582031 149.703125 322.582031 149.703125 321.445313 C 149.703125 320.644531 149.703125 319.945313 149.703125 319.144531 C 149.703125 317.746094 148.320313 316.445313 147.273438 316.445313 C 145.496094 316.445313 143.851563 316.445313 142.070313 316.445313 C 139.976563 316.445313 138.136719 318.65625 138.136719 320.277344 Z M 252.792969 311.707031 L 253.382813 311.707031 C 253.8125 311.707031 254.164063 312.054688 254.164063 312.480469 L 254.164063 322.1875 C 254.164063 323.65625 252.144531 325.183594 250.6875 325.183594 L 248.78125 325.207031 C 247.390625 325.183594 246.292969 325.015625 245.050781 324.914063 C 243.324219 325.3125 241.640625 325.246094 239.980469 324.871094 C 238.789063 325.3125 237.472656 325.234375 236.410156 324.964844 L 236.4375 323.582031 L 238.464844 323.582031 C 239.414063 323.582031 239.59375 322.929688 239.34375 322.066406 L 237.191406 313.539063 C 236.777344 311.707031 238.734375 311.394531 239.175781 312.84375 L 241.546875 322.238281 C 242.300781 324.753906 245.050781 323.230469 245.050781 321.917969 L 245.050781 312.648438 C 245.050781 312.195313 245.425781 311.828125 245.882813 311.828125 L 246.335938 311.828125 C 246.792969 311.828125 247.167969 312.195313 247.167969 312.648438 L 247.167969 322.648438 C 247.167969 323.582031 247.964844 323.582031 249.472656 323.582031 C 250.921875 323.621094 252.015625 322.914063 252.015625 321.632813 L 252.015625 312.480469 C 252.015625 312.054688 252.367188 311.707031 252.792969 311.707031 Z M 210.777344 311.707031 L 211.253906 311.707031 C 211.71875 311.707031 212.101563 312.085938 212.101563 312.542969 L 212.101563 321.617188 C 212.125 322.867188 212.960938 323.582031 214.613281 323.582031 L 217.125 323.582031 C 218.09375 323.582031 218.746094 323.371094 218.011719 322.210938 C 217.257813 321.257813 217.007813 320.613281 216.574219 319.445313 C 215.90625 317.644531 216.753906 315.203125 219.035156 315.203125 L 224.945313 315.203125 C 227.222656 315.203125 228.074219 317.644531 227.40625 319.445313 C 226.972656 320.613281 226.722656 321.257813 225.964844 322.210938 C 225.234375 323.371094 225.886719 323.582031 226.855469 323.582031 L 229.367188 323.582031 C 231.019531 323.582031 231.855469 322.867188 231.878906 321.617188 L 231.878906 312.542969 C 231.878906 312.085938 232.257813 311.707031 232.722656 311.707031 L 233.203125 311.707031 C 233.667969 311.707031 234.046875 312.085938 234.046875 312.542969 L 234.046875 322.082031 C 234.046875 323.996094 232.363281 325.183594 229.785156 325.183594 C 226.945313 325.183594 224.585938 325.105469 221.988281 324.902344 C 218.742188 325.183594 216.792969 325.183594 214.195313 325.183594 C 211.617188 325.183594 209.929688 323.996094 209.929688 322.082031 L 209.929688 312.542969 C 209.929688 312.085938 210.3125 311.707031 210.777344 311.707031 Z M 221.988281 323.582031 C 221.035156 322.808594 220.125 321.703125 219.242188 320.371094 C 218.25 318.917969 218.421875 316.449219 220.289063 316.449219 L 223.691406 316.449219 C 225.558594 316.449219 225.730469 318.917969 224.734375 320.371094 C 223.851563 321.703125 222.941406 322.808594 221.988281 323.582031 Z M 208.039063 316.246094 L 208.039063 321.246094 C 208.039063 323.414063 206.246094 325.183594 204.054688 325.183594 L 196.410156 325.183594 C 194.21875 325.183594 192.425781 323.414063 192.425781 321.246094 L 192.425781 318.476563 C 192.425781 317.003906 194.789063 317.257813 194.789063 318.476563 L 194.789063 321.269531 C 194.789063 322.539063 195.84375 323.582031 197.128906 323.582031 L 203.570313 323.582031 C 204.859375 323.582031 205.914063 322.539063 205.914063 321.269531 L 205.914063 316.4375 C 205.914063 314.914063 208.039063 314.886719 208.039063 316.246094 Z M 172.914063 315.203125 L 173.207031 315.203125 C 173.710938 315.203125 174.121094 315.605469 174.121094 316.101563 L 174.121094 322.011719 C 174.121094 323.152344 174.542969 323.554688 175.65625 323.582031 C 176.292969 323.582031 176.933594 323.582031 177.570313 323.582031 C 178.976563 323.582031 179.460938 322.789063 179.382813 321.367188 L 179.382813 312.621094 C 179.382813 312.121094 179.796875 311.710938 180.308594 311.710938 L 180.707031 311.710938 C 181.21875 311.710938 181.636719 312.121094 181.636719 312.621094 L 181.636719 322.140625 C 181.636719 323.871094 179.695313 325.183594 177.570313 325.183594 C 176.488281 325.183594 175.40625 325.183594 174.324219 325.183594 C 173.542969 327.628906 171.863281 328.601563 169.53125 328.257813 C 168.3125 327.953125 168.339844 327.453125 169.234375 327.207031 C 171.238281 326.730469 172 325.726563 172 324.101563 L 172 316.101563 C 172 315.605469 172.410156 315.203125 172.914063 315.203125 Z M 184.921875 311.710938 L 184.980469 311.710938 C 185.515625 311.710938 185.953125 312.144531 185.953125 312.679688 L 185.953125 324.210938 C 185.953125 324.746094 185.515625 325.183594 184.980469 325.183594 L 184.921875 325.183594 C 184.386719 325.183594 183.949219 324.746094 183.949219 324.210938 L 183.949219 312.679688 C 183.949219 312.144531 184.386719 311.710938 184.921875 311.710938 Z M 184.921875 311.710938 "/>
</g>
</svg>
